# xmcd
#
# Track frame offsets: 
#        187
#        14987
#        27315
#        37562
#        51872
#        65752
#        80007
#        97900
#        109155
#        122960
#
# Disc length: 1863 seconds
#
# Revision: 5
# Processed by: cddbd v1.5.2PL0 Copyright (c) Steve Scherf et al.
# Submitted via: ExactAudioCopy v0.95b4
#
DISCID=8007450a,8407450a,8c07430a
DTITLE=Clint Black - Put Yourself In My Shoes
DYEAR=1990
DGENRE=Country
TTITLE0=Put Yourself In My Shoes
TTITLE1=The Gulf Of Mexico
TTITLE2=One More Payment
TTITLE3=Where Are You Now
TTITLE4=The Old Man
TTITLE5=This Nightlife
TTITLE6=Loving Blind
TTITLE7=Muddy Water
TTITLE8=A Heart Like Mine
TTITLE9=The Goodnight-Loving
EXTD=
EXTT0=
EXTT1=
EXTT2=
EXTT3=
EXTT4=
EXTT5=
EXTT6=
EXTT7=
EXTT8=
EXTT9=
PLAYORDER=
